<svg width="95" height="28" viewBox="0 0 95 28" fill="none" xmlns="http://www.w3.org/2000/svg">
<path d="M7.672 27.384C5.88 27.384 4.46133 27.0107 3.416 26.264C2.392 25.5173 1.656 24.472 1.208 23.128C0.781333 21.7627 0.568 20.1947 0.568 18.424V9.72C0.568 7.88533 0.802667 6.296 1.272 4.952C1.74133 3.608 2.54133 2.57333 3.672 1.848C4.824 1.10133 6.38133 0.727999 8.344 0.727999C10.264 0.727999 11.768 1.048 12.856 1.688C13.9653 2.328 14.7547 3.21333 15.224 4.344C15.6933 5.47467 15.928 6.79733 15.928 8.312V9.976H10.328V7.864C10.328 7.30933 10.2853 6.79733 10.2 6.328C10.136 5.85867 9.96533 5.48533 9.688 5.208C9.432 4.90933 9.00533 4.76 8.408 4.76C7.78933 4.76 7.34133 4.93067 7.064 5.272C6.78667 5.592 6.60533 5.99733 6.52 6.488C6.456 6.97867 6.424 7.49067 6.424 8.024V20.024C6.424 20.6 6.47733 21.144 6.584 21.656C6.712 22.1467 6.92533 22.552 7.224 22.872C7.544 23.1707 7.992 23.32 8.568 23.32C9.16533 23.32 9.624 23.16 9.944 22.84C10.264 22.52 10.488 22.104 10.616 21.592C10.744 21.08 10.808 20.536 10.808 19.96V16.92H8.472V13.56H15.96V27H12.184L11.864 24.856C11.5227 25.5813 11.0213 26.1893 10.36 26.68C9.69867 27.1493 8.80267 27.384 7.672 27.384ZM19.545 27V1.08H26.681C28.4303 1.08 29.945 1.272 31.225 1.656C32.505 2.04 33.497 2.73333 34.201 3.736C34.9263 4.71733 35.289 6.11467 35.289 7.928C35.289 8.99467 35.2037 9.944 35.033 10.776C34.8623 11.608 34.5423 12.3333 34.073 12.952C33.625 13.5493 32.9743 14.0507 32.121 14.456L35.673 27H29.753L26.905 15.384H25.273V27H19.545ZM25.273 12.088H26.873C27.6837 12.088 28.313 11.9493 28.761 11.672C29.209 11.3733 29.5183 10.9573 29.689 10.424C29.881 9.86933 29.977 9.208 29.977 8.44C29.977 7.33067 29.7743 6.46667 29.369 5.848C28.9637 5.22933 28.217 4.92 27.129 4.92H25.273V12.088ZM41.4028 27V16.408L36.4748 1.08H41.8828L44.3468 9.272L46.5548 1.08H51.7388L46.9068 16.408V27H41.4028ZM53.67 27V1.08H57.702L63.014 13.56V1.08H67.75V27H63.878L58.566 13.56V27H53.67ZM71.6075 27V1.08H78.1675C80.4288 1.08 82.1888 1.368 83.4475 1.944C84.7062 2.49867 85.5915 3.384 86.1035 4.6C86.6155 5.79467 86.8715 7.352 86.8715 9.272V18.68C86.8715 20.6213 86.6155 22.2107 86.1035 23.448C85.5915 24.664 84.7062 25.56 83.4475 26.136C82.2102 26.712 80.4715 27 78.2315 27H71.6075ZM77.3355 23.032H78.2315C79.1062 23.032 79.7355 22.904 80.1195 22.648C80.5035 22.392 80.7382 22.008 80.8235 21.496C80.9302 20.984 80.9835 20.344 80.9835 19.576V8.28C80.9835 7.512 80.9195 6.89333 80.7915 6.424C80.6848 5.95467 80.4395 5.61333 80.0555 5.4C79.6715 5.18667 79.0528 5.08 78.1995 5.08H77.3355V23.032ZM89.9095 27V22.072H94.8375V27H89.9095Z" fill="white"/>
</svg>
